<svg version="1.1" xmlns="http://www.w3.org/2000/svg" viewBox="0 0 940 643" width="940" height="643">
  <!-- svg-source:excalidraw -->
  
  <defs>
    <style class="style-fonts">
      @font-face {
        font-family: "Virgil";
        src: url("https://excalidraw.com/Virgil.woff2");
      }
      @font-face {
        font-family: "Cascadia";
        src: url("https://excalidraw.com/Cascadia.woff2");
      }
      @font-face {
        font-family: "Assistant";
        src: url("https://excalidraw.com/Assistant-Regular.woff2");
      }
    </style>
    
  </defs>
  <rect x="0" y="0" width="940" height="643" fill="#f5faff"></rect><g stroke-linecap="round" transform="translate(10 14) rotate(0 212 309.5)"><path d="M32 0 C146.72 1.22, 258.6 0.3, 392 0 M32 0 C124.57 -1.88, 216.56 -1.67, 392 0 M392 0 C412 0.58, 423.49 8.7, 424 32 M392 0 C412.96 -0.18, 425.86 9.21, 424 32 M424 32 C424.49 240.55, 423.57 451.05, 424 587 M424 32 C424.39 204.51, 424.59 377.25, 424 587 M424 587 C425.46 607.01, 414.92 619.88, 392 619 M424 587 C424.37 607.68, 412.86 621.02, 392 619 M392 619 C317.17 616.83, 240.92 618.3, 32 619 M392 619 C293.87 619.07, 194.9 619.09, 32 619 M32 619 C10.69 619.03, -1.43 606.89, 0 587 M32 619 C10.93 618.53, -2.14 608.95, 0 587 M0 587 C-2.03 436.94, -2.37 286.9, 0 32 M0 587 C1.04 474.47, 1.4 362.59, 0 32 M0 32 C-1.61 11.34, 11.82 -1.08, 32 0 M0 32 C-0.74 8.83, 9.56 -0.19, 32 0" stroke="#1e1e1e" stroke-width="2" fill="none"></path></g><g stroke-linecap="round" transform="translate(505 10) rotate(0 212 309.5)"><path d="M32 0 C136.98 1.09, 240.31 2.67, 392 0 M32 0 C164.79 2.18, 297.59 2.19, 392 0 M392 0 C413.79 -1.92, 422.43 8.84, 424 32 M392 0 C412.26 0.29, 425.89 11.17, 424 32 M424 32 C422.13 176.63, 423.39 320.02, 424 587 M424 32 C424.84 160.92, 424.47 290.36, 424 587 M424 587 C425.71 607.22, 414.58 617.14, 392 619 M424 587 C422.76 607.49, 411.97 619.87, 392 619 M392 619 C285.85 620.64, 179.13 620.91, 32 619 M392 619 C316.79 616.51, 242.97 616.27, 32 619 M32 619 C10.42 618.6, 0.48 609.48, 0 587 M32 619 C11.22 620.32, -1.85 610.41, 0 587 M0 587 C0.42 455.19, 1.37 324.24, 0 32 M0 587 C-0.59 468.65, -0.15 350.05, 0 32 M0 32 C-1.93 8.86, 11.72 -0.85, 32 0 M0 32 C-1.45 11.01, 10.62 -1.33, 32 0" stroke="#1e1e1e" stroke-width="2" fill="none"></path></g><g stroke-linecap="round" transform="translate(10 133) rotate(0 211.5 60)"><path d="M30 0 C151.83 -1.76, 273.81 -1.02, 393 0 M30 0 C150.33 1.54, 269.6 2.49, 393 0 M393 0 C413.58 -0.38, 423.88 8.2, 423 30 M393 0 C415.18 0.3, 421.98 8.38, 423 30 M423 30 C421.17 45.56, 421.04 65.59, 423 90 M423 30 C423.29 46.75, 422.44 64.14, 423 90 M423 90 C424.09 111.17, 412.31 120.94, 393 120 M423 90 C424.81 109.33, 411.87 117.72, 393 120 M393 120 C315.08 119.77, 233.63 119.82, 30 120 M393 120 C266.13 121.39, 139.11 121.52, 30 120 M30 120 C10.37 119.05, -1.56 110.64, 0 90 M30 120 C8.13 122.03, 0.27 110.25, 0 90 M0 90 C0.31 68.78, -1.32 43.6, 0 30 M0 90 C-0.92 70.75, -0.78 51.11, 0 30 M0 30 C-0.33 8.34, 10.79 1.14, 30 0 M0 30 C0.54 10.6, 8.88 0.34, 30 0" stroke="#1e1e1e" stroke-width="2" fill="none"></path></g><g stroke-linecap="round" transform="translate(505 157) rotate(0 69 190.5)"><path d="M32 0 C53.89 -1.86, 79.04 1.22, 106 0 M32 0 C61.33 -0.48, 89.74 0.51, 106 0 M106 0 C125.41 -1.57, 136.17 9.73, 138 32 M106 0 C127.62 1.89, 138.5 9.74, 138 32 M138 32 C140.86 108.44, 139.62 181.13, 138 349 M138 32 C135.72 134.23, 136.01 237.16, 138 349 M138 349 C136.89 371.58, 125.48 379.92, 106 381 M138 349 C137.15 368.97, 128.2 380.87, 106 381 M106 381 C80.97 379.51, 55.73 379.05, 32 381 M106 381 C81.4 380.46, 56.91 380.14, 32 381 M32 381 C10.27 381.48, 1.15 370.81, 0 349 M32 381 C11.99 379.15, 2.07 368.89, 0 349 M0 349 C0.61 269.45, 1.81 187.56, 0 32 M0 349 C-0.02 250.09, -0.58 150, 0 32 M0 32 C-1.8 11.72, 9.82 -1.26, 32 0 M0 32 C0.34 10.62, 9.33 0.61, 32 0" stroke="#1e1e1e" stroke-width="2" fill="none"></path></g><g stroke-linecap="round" transform="translate(506 167) rotate(0 69 17)"><path d="M8.5 0 C36.8 0.8, 66.42 -2.13, 129.5 0 M8.5 0 C54.06 0.47, 99.87 1.58, 129.5 0 M129.5 0 C135.98 0.77, 137.47 1.57, 138 8.5 M129.5 0 C135.97 -1.02, 139.39 3.29, 138 8.5 M138 8.5 C137.37 13.96, 137.25 15.4, 138 25.5 M138 8.5 C138.69 14.24, 138.53 19.4, 138 25.5 M138 25.5 C139.26 32.51, 133.9 33.78, 129.5 34 M138 25.5 C139.57 29.91, 137.31 33.44, 129.5 34 M129.5 34 C84.44 35.52, 37.32 35.81, 8.5 34 M129.5 34 C84.24 33.65, 38.98 33.18, 8.5 34 M8.5 34 C1.25 33.45, 0.91 29.32, 0 25.5 M8.5 34 C4.81 33.25, -1.29 33.22, 0 25.5 M0 25.5 C1.5 20.53, -1.3 15.18, 0 8.5 M0 25.5 C-0.2 21.34, 0.69 16.69, 0 8.5 M0 8.5 C-0.86 1.2, 2.29 0.57, 8.5 0 M0 8.5 C-1.99 4.13, 0.83 -1.79, 8.5 0" stroke="#1e1e1e" stroke-width="2" fill="none"></path></g><g stroke-linecap="round" transform="translate(505 206) rotate(0 69 17)"><path d="M8.5 0 C48.48 1.8, 86.12 0.64, 129.5 0 M8.5 0 C41.19 0.03, 74.94 0.87, 129.5 0 M129.5 0 C135.97 1.51, 136.35 4.52, 138 8.5 M129.5 0 C132.99 -1.85, 140.12 3.92, 138 8.5 M138 8.5 C138.95 12.79, 137.54 15.42, 138 25.5 M138 8.5 C137.25 14.02, 138.21 20.47, 138 25.5 M138 25.5 C139.73 32.8, 134.55 35.42, 129.5 34 M138 25.5 C139.35 30.34, 137.05 31.8, 129.5 34 M129.5 34 C103.42 36.09, 79.41 34.58, 8.5 34 M129.5 34 C105.22 34.3, 79.05 33.51, 8.5 34 M8.5 34 C4.43 32.04, -0.33 31.15, 0 25.5 M8.5 34 C1.29 34.96, -0.99 31.92, 0 25.5 M0 25.5 C-1.26 22.96, -0.66 18.4, 0 8.5 M0 25.5 C-0.79 19.31, 0.05 14.12, 0 8.5 M0 8.5 C0.3 1.42, 3.3 1.93, 8.5 0 M0 8.5 C1.82 1.46, 4.69 0.23, 8.5 0" stroke="#1e1e1e" stroke-width="2" fill="none"></path></g><g stroke-linecap="round" transform="translate(505 247) rotate(0 69 17)"><path d="M8.5 0 C55.14 -0.51, 99.11 -2.36, 129.5 0 M8.5 0 C36.81 -0.5, 65.05 1.17, 129.5 0 M129.5 0 C136.75 -1.2, 139.61 3.03, 138 8.5 M129.5 0 C134.42 0.11, 138.24 1.37, 138 8.5 M138 8.5 C138.96 14.73, 138.95 19.56, 138 25.5 M138 8.5 C137.61 14.72, 137.66 19.81, 138 25.5 M138 25.5 C139.67 32.81, 135 33.16, 129.5 34 M138 25.5 C138.87 29.38, 133.37 32.21, 129.5 34 M129.5 34 C97.57 33.48, 66.11 34.83, 8.5 34 M129.5 34 C97.93 33.63, 65.87 33.34, 8.5 34 M8.5 34 C3.05 34.56, -1.05 30.06, 0 25.5 M8.5 34 C3.15 34.7, -2.21 32.35, 0 25.5 M0 25.5 C0.19 20.42, 1.65 16.43, 0 8.5 M0 25.5 C-0.17 20.11, -0.04 13.72, 0 8.5 M0 8.5 C-0.93 4.37, 2.32 1.77, 8.5 0 M0 8.5 C-0.53 4.98, 0.89 1.41, 8.5 0" stroke="#1e1e1e" stroke-width="2" fill="none"></path></g><g stroke-linecap="round" transform="translate(505 287) rotate(0 69 17)"><path d="M8.5 0 C37.75 -1.19, 64.78 0.15, 129.5 0 M8.5 0 C47.75 -1.12, 89.44 -0.56, 129.5 0 M129.5 0 C133.71 1.84, 136.38 3.55, 138 8.5 M129.5 0 C134.03 1.81, 137.32 3.68, 138 8.5 M138 8.5 C139.23 12.91, 139.43 17.81, 138 25.5 M138 8.5 C138.31 15.13, 137.53 21.7, 138 25.5 M138 25.5 C138.02 30.32, 133.57 33.42, 129.5 34 M138 25.5 C136.65 29.6, 134.09 35.83, 129.5 34 M129.5 34 C92.53 35.17, 55.86 36.21, 8.5 34 M129.5 34 C88.17 35.54, 47.43 35.47, 8.5 34 M8.5 34 C4.51 34.55, -1.23 32.98, 0 25.5 M8.5 34 C1.3 34.67, 1.46 30.9, 0 25.5 M0 25.5 C-1.54 18.44, 1.54 12.86, 0 8.5 M0 25.5 C-0.32 20.46, 0.06 17.24, 0 8.5 M0 8.5 C1.59 1.5, 3.31 0.66, 8.5 0 M0 8.5 C1.04 3.77, 0.77 -0.11, 8.5 0" stroke="#1e1e1e" stroke-width="2" fill="none"></path></g><g stroke-linecap="round" transform="translate(506 325) rotate(0 69 17)"><path d="M8.5 0 C36.04 -1.31, 65.49 0.92, 129.5 0 M8.5 0 C36.02 1.46, 63.34 0.16, 129.5 0 M129.5 0 C133.35 0.81, 138.58 3.43, 138 8.5 M129.5 0 C132.97 0.39, 138.58 3.69, 138 8.5 M138 8.5 C139.3 14.12, 139.43 20.28, 138 25.5 M138 8.5 C138.64 12.37, 137.53 16.02, 138 25.5 M138 25.5 C138.94 29.53, 133.59 34.76, 129.5 34 M138 25.5 C140.16 29.11, 135.63 33.32, 129.5 34 M129.5 34 C96.86 32.55, 60.81 32.18, 8.5 34 M129.5 34 C84.01 33.23, 37.85 34.25, 8.5 34 M8.5 34 C3.7 34.6, -1.2 32.43, 0 25.5 M8.5 34 C1.21 34.18, -0.06 30.74, 0 25.5 M0 25.5 C0.91 21.22, -0.86 16.39, 0 8.5 M0 25.5 C0.97 19.81, -0.36 12.4, 0 8.5 M0 8.5 C-0.23 1, 1.8 0.36, 8.5 0 M0 8.5 C-0.76 3.52, 3.47 -1.65, 8.5 0" stroke="#1e1e1e" stroke-width="2" fill="none"></path></g><g stroke-linecap="round" transform="translate(505 364) rotate(0 69 17)"><path d="M8.5 0 C49.45 -0.29, 88.86 -0.8, 129.5 0 M8.5 0 C43.98 -0.78, 81.12 -0.36, 129.5 0 M129.5 0 C133.23 0.25, 139.59 1.81, 138 8.5 M129.5 0 C134.9 1.43, 136.49 2.07, 138 8.5 M138 8.5 C137.74 14.67, 136.26 21.7, 138 25.5 M138 8.5 C138.21 13.57, 137.49 19.8, 138 25.5 M138 25.5 C138.58 29.41, 133.27 34.2, 129.5 34 M138 25.5 C138.29 31.55, 136.49 31.85, 129.5 34 M129.5 34 C81.74 30.95, 33.61 31.28, 8.5 34 M129.5 34 C94.62 33.97, 58.87 33.06, 8.5 34 M8.5 34 C1.53 35.82, -1.02 31.34, 0 25.5 M8.5 34 C1.78 33.03, 0.65 30.2, 0 25.5 M0 25.5 C0.05 20.34, 1.53 17, 0 8.5 M0 25.5 C-0.29 21.07, -0.67 18.27, 0 8.5 M0 8.5 C1.04 3.3, 1.81 1.24, 8.5 0 M0 8.5 C-0.37 4.53, 4.41 -2.11, 8.5 0" stroke="#1e1e1e" stroke-width="2" fill="none"></path></g><g stroke-linecap="round" transform="translate(504 404) rotate(0 69 18.5)"><path d="M9.25 0 C43.91 -1.3, 80.1 0.53, 128.75 0 M9.25 0 C35.97 -0.26, 62.49 0.96, 128.75 0 M128.75 0 C135.96 0.47, 136.97 4.32, 138 9.25 M128.75 0 C134.54 1.69, 139.57 0.97, 138 9.25 M138 9.25 C138.37 12.84, 139.2 17.68, 138 27.75 M138 9.25 C138.3 16.6, 137.72 24.05, 138 27.75 M138 27.75 C138.18 31.95, 136.58 37.3, 128.75 37 M138 27.75 C139.15 33.69, 135.4 36.8, 128.75 37 M128.75 37 C99.43 38.63, 69.31 37.65, 9.25 37 M128.75 37 C92.38 38.63, 57.03 37.53, 9.25 37 M9.25 37 C2.7 37.81, 0.35 32.78, 0 27.75 M9.25 37 C3.78 36.36, -0.1 33.71, 0 27.75 M0 27.75 C1.12 21.7, -1.4 16.42, 0 9.25 M0 27.75 C-0.9 21.67, -0.36 16.27, 0 9.25 M0 9.25 C-1.31 2.66, 4.06 -0.87, 9.25 0 M0 9.25 C-0.6 3.77, 1.18 0.99, 9.25 0" stroke="#1e1e1e" stroke-width="2" fill="none"></path></g><g stroke-linecap="round" transform="translate(505 445) rotate(0 69 17)"><path d="M8.5 0 C37.22 -0.36, 65.14 -1.34, 129.5 0 M8.5 0 C44.14 -0.37, 80.79 -1.47, 129.5 0 M129.5 0 C134.78 0.81, 138.35 1.69, 138 8.5 M129.5 0 C135.86 -0.64, 137.9 2.63, 138 8.5 M138 8.5 C138.93 13.91, 136.62 20.02, 138 25.5 M138 8.5 C137.15 13.93, 137.64 19.99, 138 25.5 M138 25.5 C136.69 30.74, 136.15 33.13, 129.5 34 M138 25.5 C137.4 31.85, 133.27 34.99, 129.5 34 M129.5 34 C90.21 32.57, 52.73 33.14, 8.5 34 M129.5 34 C83.93 32.85, 37.15 33.8, 8.5 34 M8.5 34 C2.36 35.66, -0.89 29.23, 0 25.5 M8.5 34 C4.04 32.11, -0.65 29.79, 0 25.5 M0 25.5 C1.53 18.68, -0.46 13.31, 0 8.5 M0 25.5 C0.53 19.98, 0.28 16.11, 0 8.5 M0 8.5 C-0.01 3.87, 1.67 -0.61, 8.5 0 M0 8.5 C0.08 3.8, 1.75 -1.52, 8.5 0" stroke="#1e1e1e" stroke-width="2" fill="none"></path></g><g stroke-linecap="round" transform="translate(505 485) rotate(0 69 17)"><path d="M8.5 0 C46.63 0.14, 85.14 1.54, 129.5 0 M8.5 0 C56.87 1.32, 104.41 1.47, 129.5 0 M129.5 0 C134 -0.61, 138.07 3.68, 138 8.5 M129.5 0 C134.08 -1.52, 137.54 2.32, 138 8.5 M138 8.5 C138.98 12.76, 138.88 16.85, 138 25.5 M138 8.5 C138.22 11.61, 138.09 15.5, 138 25.5 M138 25.5 C139.72 30.9, 136.77 35.22, 129.5 34 M138 25.5 C135.91 32.03, 134.89 32.6, 129.5 34 M129.5 34 C89.76 33.21, 47.11 32.86, 8.5 34 M129.5 34 C82.94 33.42, 37.29 33.66, 8.5 34 M8.5 34 C4.57 34.66, 1.93 30.93, 0 25.5 M8.5 34 C4.95 34.69, -0.48 32.41, 0 25.5 M0 25.5 C1.25 19.06, -0.43 14.52, 0 8.5 M0 25.5 C-0.04 18.69, 0.48 12.57, 0 8.5 M0 8.5 C-1.77 1.54, 2.32 -0.06, 8.5 0 M0 8.5 C0 1.88, 1.71 1.68, 8.5 0" stroke="#1e1e1e" stroke-width="2" fill="none"></path></g><g stroke-linecap="round" transform="translate(503 11) rotate(0 212.5 58.50000000000003)"><path d="M29.25 0 C118.46 -0.89, 204.65 -1.39, 395.75 0 M29.25 0 C139.14 -0.07, 249.42 -1.03, 395.75 0 M395.75 0 C416.03 0.19, 426.02 8.44, 425 29.25 M395.75 0 C416.33 -0.49, 425.03 9.41, 425 29.25 M425 29.25 C422.59 41.25, 425.01 55.56, 425 87.75 M425 29.25 C425.48 44.45, 426.26 57.44, 425 87.75 M425 87.75 C425.58 105.49, 413.6 117.35, 395.75 117 M425 87.75 C423.82 106.02, 414.31 116.84, 395.75 117 M395.75 117 C282.21 118.59, 171.64 117.3, 29.25 117 M395.75 117 C303.61 115.39, 210.99 115.96, 29.25 117 M29.25 117 C11.19 115.58, -1.86 108.3, 0 87.75 M29.25 117 C11.12 116.78, 2.18 108.94, 0 87.75 M0 87.75 C1.73 64.03, 0.37 41.93, 0 29.25 M0 87.75 C0.38 73.68, -1.16 60.06, 0 29.25 M0 29.25 C1.61 8.24, 10.24 -1.79, 29.25 0 M0 29.25 C2.3 7.88, 8.95 0, 29.25 0" stroke="#1e1e1e" stroke-width="2" fill="none"></path></g><g stroke-linecap="round" transform="translate(506 129) rotate(0 211 14.500000000000028)"><path d="M7.25 0 C116.72 0.79, 226.08 -0.63, 414.75 0 M7.25 0 C116.68 -0.16, 225.92 -0.12, 414.75 0 M414.75 0 C420.31 -1.33, 420.78 2.21, 422 7.25 M414.75 0 C418.27 1.69, 422.63 2.65, 422 7.25 M422 7.25 C422.8 11.32, 422.28 16.97, 422 21.75 M422 7.25 C422.17 11.23, 421.58 15.14, 422 21.75 M422 21.75 C422.25 27.07, 417.68 27.8, 414.75 29 M422 21.75 C424.11 26.91, 421.67 30.13, 414.75 29 M414.75 29 C265.63 28.06, 117.43 27.18, 7.25 29 M414.75 29 C270.22 28.95, 125.07 28.26, 7.25 29 M7.25 29 C2.28 29.52, 1.13 26.86, 0 21.75 M7.25 29 C3.56 27.95, 2.15 26.81, 0 21.75 M0 21.75 C0.94 15.69, 0.32 10.42, 0 7.25 M0 21.75 C-0.65 16.54, -0.05 12.89, 0 7.25 M0 7.25 C1.89 1.62, 3.98 -0.68, 7.25 0 M0 7.25 C2.08 0.33, 2.9 -0.03, 7.25 0" stroke="#1e1e1e" stroke-width="2" fill="none"></path></g><g stroke-linecap="round" transform="translate(811 10) rotate(0 59.5 58.50000000000003)"><path d="M29.25 0 C50.88 1.55, 72.72 1.8, 89.75 0 M29.25 0 C53.45 0.33, 76.14 0.3, 89.75 0 M89.75 0 C107.94 1.46, 117.83 10.72, 119 29.25 M89.75 0 C110.49 0.93, 116.94 10.86, 119 29.25 M119 29.25 C117.4 50.86, 120.58 75.66, 119 87.75 M119 29.25 C120.08 50.74, 118.5 70.64, 119 87.75 M119 87.75 C118.68 107.68, 107.82 117.38, 89.75 117 M119 87.75 C116.71 105.26, 108.56 119.02, 89.75 117 M89.75 117 C77.12 117.99, 59.68 115.92, 29.25 117 M89.75 117 C76.99 116.07, 63.59 116.89, 29.25 117 M29.25 117 C9.59 115.7, 0.46 106.42, 0 87.75 M29.25 117 C11.51 119.1, -1.86 109.17, 0 87.75 M0 87.75 C1.76 75.16, -1.56 57.72, 0 29.25 M0 87.75 C-0.96 66.42, -0.84 43.33, 0 29.25 M0 29.25 C0.76 8.23, 10.09 1.33, 29.25 0 M0 29.25 C-2.12 9.55, 8.38 2.29, 29.25 0" stroke="#1e1e1e" stroke-width="2" fill="none"></path></g><g stroke-linecap="round" transform="translate(11 541.3257328990228) rotate(0 211.53745928338765 44.3371335504886)"><path d="M22.17 0 C136.02 2.08, 250.82 0.91, 400.91 0 M22.17 0 C99.84 1.73, 177.29 2.07, 400.91 0 M400.91 0 C416.82 0.47, 423.6 6.42, 423.07 22.17 M400.91 0 C416.03 -2.03, 423.84 6.37, 423.07 22.17 M423.07 22.17 C422.61 36.94, 424.4 55.75, 423.07 66.51 M423.07 22.17 C423.37 33.91, 424 45.4, 423.07 66.51 M423.07 66.51 C421.22 80.61, 416.62 90.47, 400.91 88.67 M423.07 66.51 C422.65 81.31, 417.09 86.89, 400.91 88.67 M400.91 88.67 C299.1 89.15, 198.7 91.44, 22.17 88.67 M400.91 88.67 C270.37 90.51, 140.89 91.05, 22.17 88.67 M22.17 88.67 C6.71 87.29, -1.61 81.24, 0 66.51 M22.17 88.67 C9.57 87, -0.82 83.11, 0 66.51 M0 66.51 C0.18 51.91, 0.4 42.73, 0 22.17 M0 66.51 C1.03 54.13, -0.61 41.29, 0 22.17 M0 22.17 C-1.71 8.58, 5.83 -1.1, 22.17 0 M0 22.17 C-1.01 7.6, 9.63 0.37, 22.17 0" stroke="#1e1e1e" stroke-width="2" fill="none"></path></g><g stroke-linecap="round" transform="translate(505.9250814332247 540.3344191096634) rotate(0 210.53745928338765 44.33713355048859)"><path d="M22.17 0 C108.17 1.93, 197.06 1.89, 398.91 0 M22.17 0 C108.61 -1.56, 196.1 -2.72, 398.91 0 M398.91 0 C412.11 -1.83, 420.14 7.64, 421.07 22.17 M398.91 0 C415.58 0.5, 420.15 5.93, 421.07 22.17 M421.07 22.17 C422.8 38.85, 419.48 56.8, 421.07 66.51 M421.07 22.17 C421.36 31.72, 422.3 41.7, 421.07 66.51 M421.07 66.51 C422.33 79.43, 412.6 87.94, 398.91 88.67 M421.07 66.51 C419.72 82.15, 413.56 89.75, 398.91 88.67 M398.91 88.67 C264.4 90.01, 130.46 89.69, 22.17 88.67 M398.91 88.67 C322.09 87.04, 244.96 87.45, 22.17 88.67 M22.17 88.67 C7.87 89.82, 0.48 82.43, 0 66.51 M22.17 88.67 C5.54 90.75, -1.45 80.2, 0 66.51 M0 66.51 C1.14 56.3, -1.39 43.88, 0 22.17 M0 66.51 C0.69 52.43, -0.62 39.32, 0 22.17 M0 22.17 C1.06 6.54, 6.13 0.3, 22.17 0 M0 22.17 C-0.05 6.05, 7.99 1.9, 22.17 0" stroke="#1e1e1e" stroke-width="2" fill="none"></path></g><g stroke-linecap="round" transform="translate(306 132) rotate(0 63 60)"><path d="M30 0 C52.39 0.02, 69.84 -1.72, 96 0 M30 0 C53.53 0.16, 75.33 -1.08, 96 0 M96 0 C114.57 -1.24, 127.99 8.89, 126 30 M96 0 C117.08 -0.24, 124.91 8.76, 126 30 M126 30 C128.45 43.97, 125.23 59.64, 126 90 M126 30 C125.34 46.66, 127.08 65.67, 126 90 M126 90 C127.88 110.53, 115.01 121.85, 96 120 M126 90 C123.96 108.7, 115.91 118.36, 96 120 M96 120 C77.63 121.3, 60.18 119.04, 30 120 M96 120 C82.28 119.09, 67.49 120.62, 30 120 M30 120 C10.16 119.61, -1.8 109.8, 0 90 M30 120 C9.66 122.16, -0.98 107.77, 0 90 M0 90 C-1.69 72.25, 1.49 53.3, 0 30 M0 90 C-0.61 67.88, -0.35 47.74, 0 30 M0 30 C0.94 8.23, 10.42 -0.36, 30 0 M0 30 C0.05 8.81, 9.59 -0.8, 30 0" stroke="#1e1e1e" stroke-width="2" fill="none"></path></g><g transform="translate(27 34) rotate(0 61.43994140625 12.5)"><text x="0" y="0" font-family="Virgil, Segoe UI Emoji" font-size="20px" fill="#1e1e1e" text-anchor="start" style="white-space: pre;" direction="ltr" dominant-baseline="text-before-edge">Institucional</text></g><g transform="translate(528 32) rotate(0 61.43994140625 12.5)"><text x="0" y="0" font-family="Virgil, Segoe UI Emoji" font-size="20px" fill="#1e1e1e" text-anchor="start" style="white-space: pre;" direction="ltr" dominant-baseline="text-before-edge">Institucional</text></g><g transform="translate(820 131) rotate(0 52.87995910644531 12.5)"><text x="0" y="0" font-family="Virgil, Segoe UI Emoji" font-size="20px" fill="#1e1e1e" text-anchor="start" style="white-space: pre;" direction="ltr" dominant-baseline="text-before-edge">search bar</text></g><g transform="translate(842 42) rotate(0 28.729965209960938 25)"><text x="0" y="0" font-family="Virgil, Segoe UI Emoji" font-size="20px" fill="#1e1e1e" text-anchor="start" style="white-space: pre;" direction="ltr" dominant-baseline="text-before-edge">INFO</text><text x="0" y="25" font-family="Virgil, Segoe UI Emoji" font-size="20px" fill="#1e1e1e" text-anchor="start" style="white-space: pre;" direction="ltr" dominant-baseline="text-before-edge">sesion</text></g><g transform="translate(56 179) rotate(0 33.04998016357422 12.5)"><text x="0" y="0" font-family="Virgil, Segoe UI Emoji" font-size="20px" fill="#1e1e1e" text-anchor="start" style="white-space: pre;" direction="ltr" dominant-baseline="text-before-edge">Banner</text></g><g transform="translate(510 174.5) rotate(0 63.16796875 170)"><text x="0" y="0" font-family="Virgil, Segoe UI Emoji" font-size="16px" fill="#1e1e1e" text-anchor="start" style="white-space: pre;" direction="ltr" dominant-baseline="text-before-edge">CLIENTES</text><text x="0" y="20" font-family="Virgil, Segoe UI Emoji" font-size="16px" fill="#1e1e1e" text-anchor="start" style="white-space: pre;" direction="ltr" dominant-baseline="text-before-edge"> </text><text x="0" y="40" font-family="Virgil, Segoe UI Emoji" font-size="16px" fill="#1e1e1e" text-anchor="start" style="white-space: pre;" direction="ltr" dominant-baseline="text-before-edge">PROVEEDORES </text><text x="0" y="60" font-family="Virgil, Segoe UI Emoji" font-size="16px" fill="#1e1e1e" text-anchor="start" style="white-space: pre;" direction="ltr" dominant-baseline="text-before-edge"></text><text x="0" y="80" font-family="Virgil, Segoe UI Emoji" font-size="16px" fill="#1e1e1e" text-anchor="start" style="white-space: pre;" direction="ltr" dominant-baseline="text-before-edge">PRODUCTOS</text><text x="0" y="100" font-family="Virgil, Segoe UI Emoji" font-size="16px" fill="#1e1e1e" text-anchor="start" style="white-space: pre;" direction="ltr" dominant-baseline="text-before-edge"></text><text x="0" y="120" font-family="Virgil, Segoe UI Emoji" font-size="16px" fill="#1e1e1e" text-anchor="start" style="white-space: pre;" direction="ltr" dominant-baseline="text-before-edge">TURNOS</text><text x="0" y="140" font-family="Virgil, Segoe UI Emoji" font-size="16px" fill="#1e1e1e" text-anchor="start" style="white-space: pre;" direction="ltr" dominant-baseline="text-before-edge"> </text><text x="0" y="160" font-family="Virgil, Segoe UI Emoji" font-size="16px" fill="#1e1e1e" text-anchor="start" style="white-space: pre;" direction="ltr" dominant-baseline="text-before-edge">TRABAJOS</text><text x="0" y="180" font-family="Virgil, Segoe UI Emoji" font-size="16px" fill="#1e1e1e" text-anchor="start" style="white-space: pre;" direction="ltr" dominant-baseline="text-before-edge"> </text><text x="0" y="200" font-family="Virgil, Segoe UI Emoji" font-size="16px" fill="#1e1e1e" text-anchor="start" style="white-space: pre;" direction="ltr" dominant-baseline="text-before-edge">CUENTAS</text><text x="0" y="220" font-family="Virgil, Segoe UI Emoji" font-size="16px" fill="#1e1e1e" text-anchor="start" style="white-space: pre;" direction="ltr" dominant-baseline="text-before-edge"></text><text x="0" y="240" font-family="Virgil, Segoe UI Emoji" font-size="16px" fill="#1e1e1e" text-anchor="start" style="white-space: pre;" direction="ltr" dominant-baseline="text-before-edge">EMPLEADOS</text><text x="0" y="260" font-family="Virgil, Segoe UI Emoji" font-size="16px" fill="#1e1e1e" text-anchor="start" style="white-space: pre;" direction="ltr" dominant-baseline="text-before-edge"></text><text x="0" y="280" font-family="Virgil, Segoe UI Emoji" font-size="16px" fill="#1e1e1e" text-anchor="start" style="white-space: pre;" direction="ltr" dominant-baseline="text-before-edge">FACTURACIÓN</text><text x="0" y="300" font-family="Virgil, Segoe UI Emoji" font-size="16px" fill="#1e1e1e" text-anchor="start" style="white-space: pre;" direction="ltr" dominant-baseline="text-before-edge"></text><text x="0" y="320" font-family="Virgil, Segoe UI Emoji" font-size="16px" fill="#1e1e1e" text-anchor="start" style="white-space: pre;" direction="ltr" dominant-baseline="text-before-edge">NOTIF</text></g><g transform="translate(176 555) rotate(0 32.239967346191406 12.5)"><text x="0" y="0" font-family="Virgil, Segoe UI Emoji" font-size="20px" fill="#1e1e1e" text-anchor="start" style="white-space: pre;" direction="ltr" dominant-baseline="text-before-edge">Footer</text></g><g transform="translate(671 551) rotate(0 32.239967346191406 12.5)"><text x="0" y="0" font-family="Virgil, Segoe UI Emoji" font-size="20px" fill="#1e1e1e" text-anchor="start" style="white-space: pre;" direction="ltr" dominant-baseline="text-before-edge">Footer</text></g><g transform="translate(177 352) rotate(0 31.819969177246094 12.5)"><text x="0" y="0" font-family="Virgil, Segoe UI Emoji" font-size="20px" fill="#1e1e1e" text-anchor="start" style="white-space: pre;" direction="ltr" dominant-baseline="text-before-edge">Article</text></g><g transform="translate(742 252) rotate(0 31.819969177246094 12.5)"><text x="0" y="0" font-family="Virgil, Segoe UI Emoji" font-size="20px" fill="#1e1e1e" text-anchor="start" style="white-space: pre;" direction="ltr" dominant-baseline="text-before-edge">Article</text></g><g transform="translate(335 177) rotate(0 28.40997314453125 12.5)"><text x="0" y="0" font-family="Virgil, Segoe UI Emoji" font-size="20px" fill="#1e1e1e" text-anchor="start" style="white-space: pre;" direction="ltr" dominant-baseline="text-before-edge">Loggin</text></g></svg>